# AST/ASF file generated using VICON BodyLanguage
# -----------------------------------------------
:version 1.10
:name VICON
:units
  mass 1.0
  length 0.45
  angle deg
:documentation
   .ast/.asf automatically generated from VICON data using
   VICON BodyBuilder and BodyLanguage model FoxedUp or BRILLIANT.MOD
:root
   order TX TY TZ RX RY RZ
   axis XYZ
   position 0 0 0  
   orientation 0 0 0 
:bonedata
  begin
     id 1 
     name lhipjoint
     direction 0.521689 -0.742065 0.420928 
     length 2.47002 
     axis 0 0 0  XYZ
  end
  begin
     id 2 
     name lfemur
     direction 0.34202 -0.939693 0  
     length 7.24654  
     axis 0 0 20  XYZ
    dof rx ry rz
    limits (-160.0 20.0)
           (-70.0 70.0)
           (-60.0 70.0)
  end
  begin
     id 3 
     name ltibia
     direction 0.34202 -0.939693 0   
     length 8.04849   
     axis 0 0 20   XYZ
    dof rx
    limits (-10.0 170.0)
  end
  begin
     id 4 
     name lfoot
     direction 0.0745411 -0.2048 0.975961   
     length 1.72367   
     axis -90 7.62852e-016 20   XYZ
    dof rx rz
    limits (-45.0 90.0)
           (-70.0 20.0)
  end
  begin
     id 5 
     name ltoes
     direction 1.53556e-011 -4.21901e-011 1   
     length 0.87311   
     axis -90 7.62852e-016 20   XYZ
    dof rx
    limits (-90.0 20.0)
  end
  begin
     id 6 
     name rhipjoint
     direction -0.52849 -0.738415 0.418857   
     length 2.48223  
     axis 0 0 0  XYZ 
  end
  begin
     id 7 
     name rfemur
     direction -0.34202 -0.939693 0   
     length 7.15571   
     axis 0 0 -20   XYZ
    dof rx ry rz
    limits (-160.0 20.0)
           (-70.0 70.0)
           (-70.0 60.0)
  end
  begin
     id 8 
     name rtibia
     direction -0.34202 -0.939693 0   
     length 7.81659   
     axis 0 0 -20   XYZ
    dof rx
    limits (-10.0 170.0)
 end
 begin
     id 9 
     name rfoot
     direction -0.0917348 -0.252039 0.963359   
     length 1.84382  
     axis -90 -7.62852e-016 -20   XYZ
    dof rx rz
    limits (-45.0 90.0)
           (-20.0 70.0)
  end
  begin
     id 10 
     name rtoes
     direction -1.53551e-011 -4.21879e-011 1   
     length 0.927771   
     axis -90 -7.62852e-016 -20   XYZ
    dof rx
    limits (-90.0 20.0)
  end
  begin
     id 11 
     name lowerback
     direction 0.00583058 0.999822 0.0179296   
     length 2.1429   
     axis 0 0 0   XYZ
    dof rx ry rz
    limits (-20.0 45.0)
           (-30.0 30.0)
           (-30.0 30.0)
  end
  begin
     id 12 
     name upperback
     direction -0.0137999 0.999752 -0.0175071   
     length 2.14252   
     axis 0 0 0   XYZ
    dof rx ry rz
    limits (-20.0 45.0)
           (-30.0 30.0)
           (-30.0 30.0)
  end
  begin
     id 13 
     name thorax
     direction -0.0158036 0.99955 -0.0254909   
     length 2.1383   
     axis 0 0 0   XYZ
    dof rx ry rz
    limits (-20.0 45.0)
           (-30.0 30.0)
           (-30.0 30.0)
  end
  begin
     id 14 
     name lowerneck
     direction -0.0101179 0.999403 -0.0330262   
     length 1.65808   
     axis 0 0 0   XYZ
    dof rx ry rz
    limits (-20.0 45.0)
           (-30.0 30.0)
           (-30.0 30.0)
  end
  begin
     id 15 
     name upperneck
     direction 0.0497734 0.995978 -0.074501   
     length 1.5897   
     axis 0 0 0   XYZ
    dof rx ry rz
    limits (-20.0 45.0)
           (-30.0 30.0)
           (-30.0 30.0)
  end
  begin
     id 16
     name head
     direction 0.0189524 0.999519 -0.0245438  
     length 1.74024  
     axis 0 0 0   XYZ
    dof rx ry rz
    limits (-20.0 45.0)
           (-30.0 30.0)
           (-30.0 30.0)
  end
  begin
     id 17 
     name lclavicle
     direction 0.945604 0.324422 0.0241537  
     length 3.59089  
     axis 0 0 0   XYZ
    dof ry rz
    limits (-20.0 10.0)
           (0.0 20.0)
  end
  begin
     id 18 
     name lhumerus
     direction 1 -4.48964e-011 -2.63524e-027   
     length 5.2391   
     axis 180 -30 -90   XYZ
    dof rx ry rz
    limits (-60.0 90.0)
           (-90.0 90.0)
           (-90.0 90.0)
  end
  begin
     id 19
     name lradius
     direction 1 -4.48969e-011 3.86978e-028   
     length 3.31467   
     axis 180 -30 -90   XYZ
    dof rx
    limits (-10.0 170.0)
  end
  begin
     id 20
     name lwrist
     direction 1 -4.48963e-011 7.20928e-028   
     length 1.65734   
     axis -5.52449e-016 90 90   XYZ
    dof ry
    limits (-180.0 0.0)
 end
  begin
     id 21 
     name lhand
     direction 1 -4.48964e-011 1.44186e-027   
     length 0.9659   
     axis -9.20027e-016 90 90   XYZ
    dof rx rz
    limits (-90.0 90.0)
           (-45.0 45.0)
  end
  begin
     id 22 
     name lfingers
     direction 1 -4.48965e-011 2.88371e-027   
     length 0.778733   
     axis -1.84005e-015 90 90   XYZ
    dof rx
    limits (0.0 90.0)
  end
  begin
     id 23
     name lthumb
     direction 0.707107 -6.34931e-011 0.707107   
     length 1.11811   
     axis -90 45 2.85299e-015   XYZ
    dof rx rz
    limits (-45.0 45.0)
           (-45.0 45.0)
  end
  begin
     id 24 
     name rclavicle
     direction -0.923762 0.370785 0.0958234   
     length 3.54196  
     axis 0 0 0   XYZ 
    dof ry rz
    limits (-10.0 20.0)
           (-20.0 0.0)
  end
  begin
     id 25 
     name rhumerus
     direction -1 -4.48966e-011 1.18702e-017  
     length 5.30252   
     axis 180 30 90   XYZ
    dof rx ry rz
    limits (-90.0 60.0)
           (-90.0 90.0)
           (-90.0 90.0)
  end
  begin
     id 26 
     name rradius
     direction -1 -4.48966e-011 4.46736e-027   
     length 3.67875   
     axis 180 30 90   XYZ
    dof rx
    limits (-10.0 170.0)
  end
  begin
     id 27 
     name rwrist
     direction -1 -4.48966e-011 7.20928e-028   
     length 1.83937   
     axis -5.52449e-016 -90 -90   XYZ
    dof ry
    limits (-180.0 0.0)
  end
  begin
     id 28
     name rhand
     direction -1 -4.48973e-011 1.44186e-027   
     length 0.594811   
     axis -9.20027e-016 -90 -90   XYZ
    dof rx rz
    limits (-90.0 90.0)
           (-45.0 45.0)
  end
  begin
     id 29
     name rfingers
     direction -1 -4.48963e-011 2.88371e-027   
     length 0.479552   
     axis -1.84005e-015 -90 -90   XYZ
    dof rx
    limits (0.0 90.0)
  end
  begin
     id 30
     name rthumb
     direction -0.707107 -6.34932e-011 0.707107   
     length 0.688544   
     axis -90 -45 -2.85299e-015   XYZ
    dof rx rz
    limits (-45.0 45.0)
           (-45.0 45.0)
  end
:hierarchy
  begin
    root lhipjoint rhipjoint lowerback
    lhipjoint lfemur
    lfemur ltibia
    ltibia lfoot
    lfoot ltoes
    rhipjoint rfemur
    rfemur rtibia
    rtibia rfoot
    rfoot rtoes
    lowerback upperback
    upperback thorax
    thorax lowerneck lclavicle rclavicle
    lowerneck upperneck
    upperneck head
    lclavicle lhumerus
    lhumerus lradius
    lradius lwrist
    lwrist lhand lthumb
    lhand lfingers
    rclavicle rhumerus
    rhumerus rradius
    rradius rwrist
    rwrist rhand rthumb
    rhand rfingers
  end

#!OML:ASF E:\acrobat2\Project_11_07_03\Capture day 1\Session 1\Acrobat.ASF
:FULLY-SPECIFIED
:DEGREES
308
root 8.26072 18.1905 -31.6736 3.35032 24.8425 -0.823701
lowerback -6.04391 0.029951 -0.428994
upperback -2.55024 0.0864349 -0.702299
thorax 0.764834 0.0485134 -0.474447
lowerneck 0.640556 -4.44135 -1.78247
upperneck 4.27252 -6.10646 5.20032
head 1.46115 -3.00142 1.86353
rclavicle 5.60076e-014 1.59028e-015
rhumerus -39.228 -0.960958 -85.5069
rradius 25.3939
rwrist 3.45243
rhand -4.70388 -42.6491
rfingers 7.12502
rthumb 21.0779 -71.5235
lclavicle 5.60076e-014 1.59028e-015
lhumerus -32.2484 -13.0911 90.4727
lradius 19.0102
lwrist 10.0994
lhand -12.5156 -11.2944
lfingers 7.12502
lthumb 13.5601 18.244
rfemur -0.882578 6.5361 14.2764
rtibia -0.368797
rfoot -27.2447 -33.7265
rtoes 23.026
lfemur 3.86463 0.342199 -15.6494
ltibia 3.12505
lfoot -19.8399 2.39459
ltoes 29.7903
309
root 8.26138 18.1914 -31.6719 3.32214 24.8568 -0.83078
lowerback -5.94979 0.0292585 -0.405367
upperback -2.59446 0.0833271 -0.714306
thorax 0.667143 0.0468774 -0.500297
lowerneck 0.565712 -4.35696 -1.90849
upperneck 4.47486 -6.0062 5.32988
head 1.54483 -2.94752 1.92637
rclavicle -2.84262e-014 -2.78299e-015
rhumerus -39.3244 -0.999534 -85.4976
rradius 25.4413
rwrist 3.48014
rhand -4.65718 -42.6778
rfingers 7.12502
rthumb 21.1228 -71.5472
lclavicle -2.84262e-014 -2.78299e-015
lhumerus -32.321 -13.1131 90.474
lradius 19.0014
lwrist 10.0945
lhand -12.4978 -11.2856
lfingers 7.12502
lthumb 13.5773 18.2517
rfemur -0.820599 6.52779 14.2861
rtibia -0.40208
rfoot -27.3386 -33.6933
rtoes 23.4401
lfemur 3.90306 0.339355 -15.6396
ltibia 3.09753
lfoot -19.7554 2.25863
ltoes 30.598
310
root 8.26208 18.1922 -31.6714 3.31606 24.8867 -0.826869
lowerback -5.90538 0.0438357 -0.382982
upperback -2.62064 0.101437 -0.746192
thorax 0.61575 0.0557066 -0.54448
lowerneck 0.619854 -4.37626 -1.90092
upperneck 4.46784 -6.0341 5.38544
head 1.53626 -2.96131 1.94383
rclavicle 2.70844e-014 8.34896e-015
rhumerus -39.3673 -1.0748 -85.5048
rradius 25.4677
rwrist 3.44615
rhand -4.76206 -42.7075
rfingers 7.12502
rthumb 21.022 -71.5881
lclavicle 2.70844e-014 8.34896e-015
lhumerus -32.3664 -13.2093 90.4829
lradius 19.0061
lwrist 10.1392
lhand -12.5008 -11.2993
lfingers 7.12502
lthumb 13.5743 18.2382
rfemur -0.791633 6.48949 14.2789
rtibia -0.425005
rfoot -27.207 -33.7556
rtoes 23.2345
lfemur 3.90202 0.342638 -15.6441
ltibia 3.09809
lfoot -19.7021 2.29784
ltoes 30.2603
311
root 8.26302 18.1913 -31.6711 3.33441 24.8776 -0.836932
lowerback -5.91839 0.0608458 -0.351789
upperback -2.63012 0.122702 -0.762268
thorax 0.613479 0.066081 -0.57714
lowerneck 0.720947 -4.40386 -1.95813
upperneck 4.39851 -6.07224 5.49053
head 1.50438 -2.98219 1.99006
rclavicle -3.50109e-014 -1.15295e-014
rhumerus -39.3508 -1.08265 -85.5298
rradius 25.4638
rwrist 3.42294
rhand -4.83164 -42.8143
rfingers 7.12502
rthumb 20.9552 -71.7023
lclavicle -3.50109e-014 -1.15295e-014
lhumerus -32.3845 -13.2572 90.4781
lradius 19.039
lwrist 10.0821
lhand -12.7815 -11.3001
lfingers 7.12502
lthumb 13.3038 18.2552
rfemur -0.834764 6.5416 14.2915
rtibia -0.396108
rfoot -27.2387 -33.7558
rtoes 23.1168
lfemur 3.8833 0.311697 -15.6417
ltibia 3.10959
lfoot -19.7466 2.41338
ltoes 29.6748
312
root 8.2631 18.1903 -31.6696 3.37627 24.8601 -0.7946
lowerback -5.95102 0.066755 -0.40304
upperback -2.63843 0.133792 -0.773352
thorax 0.623052 0.0719679 -0.559033
lowerneck 0.591221 -4.38442 -1.84665
upperneck 4.48744 -6.04551 5.37228
head 1.54547 -2.96556 1.92908
rclavicle 2.77056e-014 -3.18055e-015
rhumerus -39.3913 -1.07505 -85.5341
rradius 25.5595
rwrist 3.38056
rhand -4.83002 -42.8984
rfingers 7.12502
rthumb 20.9567 -71.7863
lclavicle 2.77056e-014 -3.18055e-015
lhumerus -32.3949 -13.2519 90.4705
lradius 19.0534
lwrist 9.97185
lhand -13.0791 -11.2776
lfingers 7.12502
lthumb 13.017 18.2963
rfemur -0.873748 6.61945 14.2512
rtibia -0.387239
rfoot -27.3237 -33.7862
rtoes 23.2429
lfemur 3.87237 0.286644 -15.6878
ltibia 3.10659
lfoot -19.7975 2.41971
ltoes 29.7474
313
root 8.26343 18.1907 -31.6684 3.4135 24.8576 -0.734461
lowerback -5.86491 0.07307 -0.444818
upperback -2.71056 0.14379 -0.810996
thorax 0.501142 0.0772794 -0.57379
lowerneck 0.60091 -4.39718 -1.79023
upperneck 4.54529 -6.06453 5.3514
head 1.56018 -2.97368 1.91192
rclavicle -1.19271e-014 -7.55382e-015
rhumerus -39.5283 -1.12597 -85.5288
rradius 25.6446
rwrist 3.39084
rhand -4.84956 -42.8677
rfingers 7.12502
rthumb 20.938 -71.7576
lclavicle -1.19271e-014 -7.55382e-015
lhumerus -32.4829 -13.2526 90.4618
lradius 19.0416
lwrist 9.92324
lhand -12.4399 -11.1213
lfingers 7.12502
lthumb 13.6331 18.4123
rfemur -0.891763 6.62727 14.1822
rtibia -0.384526
rfoot -27.2637 -33.8644
rtoes 22.9648
lfemur 3.86887 0.256002 -15.7619
ltibia 3.07422
lfoot -19.8333 2.40789
ltoes 29.8055
314
root 8.26571 18.1909 -31.6669 3.42282 24.8567 -0.727179
lowerback -5.84973 0.0826048 -0.423797
upperback -2.73912 0.155327 -0.828302
thorax 0.46354 0.0828754 -0.602696
lowerneck 0.677313 -4.45153 -1.83533
upperneck 4.57595 -6.14104 5.41316
head 1.56402 -3.0123 1.94003
rclavicle 1.33434e-014 2.38542e-015
rhumerus -39.5637 -1.20466 -85.4974
rradius 25.6114
rwrist 3.49912
rhand -4.9951 -42.7427
rfingers 7.12502
rthumb 20.7981 -71.648
lclavicle 1.33434e-014 2.38542e-015
lhumerus -32.5399 -13.2738 90.468
lradius 19.0549
lwrist 9.9134
lhand -13.111 -11.1486
lfingers 7.12502
lthumb 12.9862 18.4272
rfemur -0.887702 6.57612 14.1641
rtibia -0.38701
rfoot -27.1805 -33.8622
rtoes 22.6543
lfemur 3.89753 0.242366 -15.7869
ltibia 3.00056
lfoot -19.8434 2.45692
ltoes 29.4849
315
root 8.26782 18.1907 -31.6646 3.44232 24.8469 -0.727563
lowerback -5.89011 0.116615 -0.389857
upperback -2.74723 0.1996 -0.861846
thorax 0.478184 0.104614 -0.653395
lowerneck 0.707635 -4.55291 -1.87204
upperneck 4.6929 -6.28455 5.48074
head 1.60644 -3.08211 1.96583
rclavicle -2.03257e-014 3.97569e-015
rhumerus -39.5898 -1.35498 -85.466
rradius 25.5738
rwrist 3.61433
rhand -5.21636 -42.6012
rfingers 7.12502
rthumb 20.5855 -71.5297
lclavicle -2.03257e-014 3.97569e-015
lhumerus -32.5416 -13.3242 90.4461
lradius 19.0244
lwrist 9.85616
lhand -12.4675 -11.0854
lfingers 7.12502
lthumb 13.6065 18.4499
rfemur -0.895762 6.49869 14.156
rtibia -0.402518
rfoot -27.0102 -33.88
rtoes 22.47
lfemur 3.91535 0.274009 -15.7894
ltibia 2.94327
lfoot -19.7695 2.53922
ltoes 29.2896
316
root 8.26742 18.1899 -31.6632 3.44713 24.8235 -0.791447
lowerback -5.91179 0.166099 -0.314547
upperback -2.75809 0.261851 -0.880002
thorax 0.480011 0.135077 -0.710407
lowerneck 0.626394 -4.5153 -1.78486
upperneck 4.61567 -6.23194 5.50203
head 1.59118 -3.05394 1.95708
rclavicle -1.99779e-014 -7.55382e-015
rhumerus -39.5521 -1.81326 -85.1683
rradius 25.1408
rwrist 4.0881
rhand -5.34004 -40.1994
rfingers 7.12502
rthumb 20.4667 -69.1407
lclavicle -1.99779e-014 -7.55382e-015
lhumerus -32.4958 -13.3768 90.4138
lradius 18.9646
lwrist 9.78952
lhand -12.9812 -11.2832
lfingers 7.12502
lthumb 13.1113 18.2846
rfemur -0.948251 6.56016 14.2338
rtibia -0.383289
rfoot -27.0217 -33.9287
rtoes 22.4647
lfemur 3.90228 0.29621 -15.699
ltibia 2.90461
lfoot -19.717 2.52886
ltoes 29.6494
317
root 8.26663 18.189 -31.6621 3.4475 24.7828 -0.852591
lowerback -5.93033 0.16703 -0.331976
upperback -2.75601 0.263286 -0.80216
thorax 0.492051 0.136319 -0.62056
lowerneck 0.585968 -4.5584 -1.92803
upperneck 4.76159 -6.29525 5.50032
head 1.65325 -3.08528 1.97867
rclavicle 2.6662e-014 1.19271e-015
rhumerus -39.4701 -1.82918 -84.9973
rradius 24.9578
rwrist 4.22839
rhand -5.28691 -39.4465
rfingers 7.12502
rthumb 20.5177 -68.3823
lclavicle 2.6662e-014 1.19271e-015
lhumerus -32.5136 -13.4099 90.5389
lradius 19.0276
lwrist 10.0278
lhand -12.8387 -11.1958
lfingers 7.12502
lthumb 13.2487 18.3632
rfemur -0.998493 6.66949 14.3103
rtibia -0.357982
rfoot -27.1899 -33.8877
rtoes 22.7365
lfemur 3.91388 0.300255 -15.6124
ltibia 2.85346
lfoot -19.7338 2.5158
ltoes 29.9273
318
root 8.26714 18.1901 -31.6606 3.42318 24.7508 -0.872485
lowerback -5.87864 0.16497 -0.339579
upperback -2.77217 0.260008 -0.767841
thorax 0.446521 0.134912 -0.581457
lowerneck 0.569287 -4.47152 -1.93396
upperneck 4.62323 -6.17284 5.50204
head 1.60677 -3.02616 1.98304
rclavicle -2.75068e-014 -2.0276e-014
rhumerus -39.4831 -1.64545 -85.0524
rradius 25.0657
rwrist 4.15157
rhand -5.29837 -40.1226
rfingers 7.12502
rthumb 20.5067 -69.0596
lclavicle -2.75068e-014 -2.0276e-014
lhumerus -32.6072 -13.5271 90.6648
lradius 19.1102
lwrist 10.3014
lhand -12.7304 -11.0621
lfingers 7.12502
lthumb 13.353 18.49
rfemur -0.977565 6.70266 14.3372
rtibia -0.356679
rfoot -27.1927 -33.8257
rtoes 22.8722
lfemur 3.96895 0.313598 -15.5893
ltibia 2.82692
lfoot -19.7925 2.57285
ltoes 29.9314
319
root 8.26861 18.1921 -31.6604 3.37046 24.7578 -0.890621
lowerback -5.81614 0.203187 -0.281714
upperback -2.77003 0.307689 -0.808187
thorax 0.414884 0.158013 -0.652633
lowerneck 0.538852 -4.58137 -1.8339
upperneck 4.77888 -6.32441 5.4339
head 1.66181 -3.09825 1.9388
rclavicle -1.41634e-015 -4.37326e-015
rhumerus -39.519 -1.35093 -85.3546
rradius 25.3937
rwrist 3.82359
rhand -5.2534 -42.3422
rfingers 7.12502
rthumb 20.5499 -71.2746
lclavicle -1.41634e-015 -4.37326e-015
lhumerus -32.5854 -13.6726 90.6638
lradius 19.0411
lwrist 10.3243
lhand -12.7101 -11.1412
lfingers 7.12502
lthumb 13.3727 18.4096
rfemur -0.914458 6.67389 14.3534
rtibia -0.362588
rfoot -27.1548 -33.8066
rtoes 22.7636
lfemur 4.03421 0.283721 -15.5881
ltibia 2.80926
lfoot -19.8735 2.57022
ltoes 29.8314
320
root 8.2691 18.1926 -31.6607 3.34949 24.7482 -0.904481
lowerback -5.79946 0.238352 -0.247334
upperback -2.75354 0.352802 -0.829696
thorax 0.42332 0.180128 -0.69129
lowerneck 0.435187 -4.64561 -1.76651
upperneck 4.90057 -6.41409 5.38723
head 1.71825 -3.13911 1.90695
rclavicle -2.62396e-014 -3.97569e-015
rhumerus -39.4633 -1.37945 -85.3585
rradius 25.3642
rwrist 3.80308
rhand -5.05647 -42.4664
rfingers 7.12502
rthumb 20.7392 -71.3782
lclavicle -2.62396e-014 -3.97569e-015
lhumerus -32.5103 -13.748 90.6466
lradius 18.975
lwrist 10.355
lhand -12.6625 -11.1956
lfingers 7.12502
lthumb 13.4185 18.3523
rfemur -0.897234 6.71743 14.366
rtibia -0.366591
rfoot -27.3607 -33.7575
rtoes 23.0878
lfemur 4.06231 0.245582 -15.5838
ltibia 2.78841
lfoot -19.9334 2.52234
ltoes 29.8762
321
root 8.26898 18.1928 -31.6588 3.34276 24.6989 -0.914848
lowerback -5.81617 0.234491 -0.268142
upperback -2.73356 0.348399 -0.784519
thorax 0.452692 0.178293 -0.633377
lowerneck 0.301189 -4.61512 -1.85125
upperneck 5.00264 -6.37589 5.366
head 1.77563 -3.11855 1.91198
rclavicle 5.04416e-015 -1.03368e-014
rhumerus -39.3749 -1.62701 -85.0414
rradius 24.9826
rwrist 4.18013
rhand -5.03464 -40.2684
rfingers 7.12502
rthumb 20.7601 -69.1779
lclavicle 5.04416e-015 -1.03368e-014
lhumerus -32.4422 -13.5841 90.6302
lradius 18.9561
lwrist 10.2701
lhand -12.591 -11.1495
lfingers 7.12502
lthumb 13.4874 18.3938
rfemur -0.896847 6.83585 14.3892
rtibia -0.364961
rfoot -27.5407 -33.713
rtoes 23.4768
lfemur 4.08507 0.28103 -15.561
ltibia 2.75343
lfoot -19.9101 2.48898
ltoes 30.26
322
root 8.2702 18.193 -31.6572 3.34356 24.6766 -0.902624
lowerback -5.83215 0.227575 -0.283519
upperback -2.71899 0.339932 -0.765033
thorax 0.476273 0.174257 -0.605155
lowerneck 0.209457 -4.57961 -1.85854
upperneck 5.04871 -6.32728 5.30543
head 1.80237 -3.09356 1.89224
rclavicle -2.31584e-014 1.59028e-015
rhumerus -39.3234 -1.62703 -84.9509
rradius 24.8572
rwrist 4.22146
rhand -5.04426 -39.5192
rfingers 7.12502
rthumb 20.7509 -68.4297
lclavicle -2.31584e-014 1.59028e-015
lhumerus -32.4023 -13.4115 90.5832
lradius 18.9512
lwrist 10.1201
lhand -12.606 -11.0314
lfingers 7.12502
lthumb 13.473 18.5128
rfemur -0.902578 6.80692 14.3766
rtibia -0.347348
rfoot -27.3866 -33.769
rtoes 23.0661
lfemur 4.09887 0.292752 -15.5798
ltibia 2.73546
lfoot -19.8629 2.52906
ltoes 30.1378
